<?xml version="1.0" encoding="UTF-8" standalone="no"?>
<!-- Generator: Adobe Illustrator 13.0.2, SVG Export Plug-In . SVG Version: 6.00 Build 14948)  -->
<svg
    xmlns:rdf="http://www.w3.org/1999/02/22-rdf-syntax-ns#"
    xmlns="http://www.w3.org/2000/svg"
    xmlns:cc="http://web.resource.org/cc/"
    xmlns:xlink="http://www.w3.org/1999/xlink"
    xmlns:dc="http://purl.org/dc/elements/1.1/"
    xmlns:svg="http://www.w3.org/2000/svg"
    xmlns:inkscape="http://www.inkscape.org/namespaces/inkscape"
    xmlns:sodipodi="http://sodipodi.sourceforge.net/DTD/sodipodi-0.dtd"
    xmlns:ns1="http://sozi.baierouge.fr"
    id="Layer_1"
    enable-background="new 0 0 426.29 211.156"
    xml:space="preserve"
    viewBox="0 0 426.29 211.156"
    version="1.0"
    y="0px"
    x="0px"
  >
<path
      d="m41.704 14.143c0.04-0.016 0.06-0.031 0.06-0.042 0-0.07-0.028-0.031-0.06 0.042zm101.38 118.38s-1.91-0.398-1.993-0.637c-0.079-0.238-3.346-3.106-3.421-3.026-0.085 0.078-1.359-1.28-1.519-0.877-0.156 0.398-2.628 0.398-2.628 0.398l-2.629-0.642s-1.112 0.802-0.875 0.479c0.239-0.318 0.079-2.229 0-1.908-0.079 0.315-3.985-1.675-3.985-1.675l-1.357 1.195v-1.514l-2.066-1.273 0.241-1.674-0.963-0.797s-0.155 0.238-0.235 0.08c-0.079-0.158-0.638-3.345-0.638-3.345l-3.03-2.471-3.661-0.16-3.348-1.837-0.717-1.67s-1.913-0.873-1.913-1.113c0-0.238-0.552-0.078-0.716-0.161-0.155-0.077-0.075-0.872-0.075-0.872l-0.883-0.722-0.315-0.214-0.779-0.236-0.477-0.666s1.733-0.774 1.554-0.712c-0.175 0.056-3.881 0.593-3.881 0.593l-0.358 0.715-1.734-0.894-2.927-0.181s-2.095-0.834-2.035-1.072c0.063-0.24-0.656-1.136-0.656-1.136s-0.478 1.136-0.598 1.255c-0.118 0.119-1.61 1.374-1.61 1.374l0.115 1.915-1.014-1.08 0.719-1.016v-1.432c0-0.183 0.896-0.598 0.896-0.598l-0.359-0.774s-1.073 0.298-1.073 0.478c0 0.178-1.434 1.014-1.434 1.014l-1.735 0.656h-0.776s-0.775 1.252-0.96 1.315c-0.177 0.061-0.113 1.198-0.113 1.198s-1.917 2.146-2.037 1.908c-0.119-0.238-2.146-1.908-2.146-1.908l-2.395 0.294-1.372 0.72-1.674-1.136-1.313-2.031 0.123-2.389 0.715-2.633 0.298-1.729-1.793-1.318s-3.644 0.299-3.644 0.12c0-0.176-1.975 0.063-1.913-0.12 0.057-0.177 0.717-1.312 0.717-1.494 0-0.18 0.48-1.552 0.48-1.552l0.777-1.552 1.015-2.982 0.595-1.021-2.985-0.178-1.794 0.716-1.015 2.99-5.08 1.373-1.254-0.955s-0.12 0.538-0.056 0.239c0.056-0.298-1.555-2.393-1.555-2.393l-0.778-2.924s2.034-6.039 1.97-5.916c-0.059 0.117 0.064-2.215 0.064-2.215l6.392-4.18 2.447 0.358 0.597 0.597 1.497-0.243 1.493-1.491 1.907 0.25 1.85-0.357 1.138 1.256 1.669-0.656 0.897 0.958 0.542 0.593v1.019l-0.418 0.954 0.418 2.152 1.194 1.675 0.776 0.297 0.956-2.628-0.181-2.45-0.417-1.977v-1.433l2.452-2.981 3.163-2.274 2.51-1.434 2.211-2.389-0.119-2.271 0.961-0.177 0.947-2.03 0.957 0.112 1.856-2.328 3.103-1.072 1.916-0.357 0.598-0.657-0.717-0.597 1.492-2.215 4.722-1.852 2.87-0.836-2.334 1.495 0.478 1.133 1.733-0.477 1.256-0.775 3.285-0.895s0.781-1.317 0.658-1.018c-0.115 0.298 1.675-0.299 1.675-0.299l-0.357-0.719 0.119-0.955-0.954 0.359-1.441 1.553-2.327-0.114-1.073-1.617 1.015-1.374s1.014-2.032 0.955-1.909c-0.061 0.116-1.611-0.48-1.611-0.48l-2.332 0.833c-0.238 0-2.449 1.316-2.391 1.138 0.061-0.179-1.136 0.657-1.136 0.657l3.046-2.446 1.257-0.182 1.435-1.317h6.871l2.331-0.479 3.105-1.671 0.243 0.3-1.316 1.252-1.614 1.674-1.557 1.67-0.775 1.018 2.45 0.119s1.91 0.048 2.092 0c0.239-0.06 0.298 0.835 0.298 0.835l1.014-0.716 0.541 1.374 1.794-1.374-0.541-1.554 0.481-1.437-2.092 0.064v-0.778s-0.775-0.896-0.836-0.778c-0.062 0.121 1.194-1.013 1.133-0.894-0.059 0.12-0.54-0.596-0.54-0.596l1.439-1.798-0.716-2.028-0.243-1.013-1.853-0.897-0.656-0.898-0.839-0.656 0.66-1.555-0.3-1.134s-0.535-3.706-0.595-3.588c-0.063 0.121-2.514 2.034-2.514 2.034l-2.505 1.257-1.319-1.136 0.124-1.498 1.135-1.074-1.856-0.597-0.119-0.478s-1.672-1.673-1.79-1.555c-0.12 0.124-0.538 0.542-0.538 0.542l-3.945-0.364-1.373 2.392-0.298 1.254s-2.161 2.162-2.425 2.329c0.158-0.046 1.169 0.96 1.169 0.96l-0.899 2.147-3.405 1.972-1.67 0.242s-1.018 3.707-0.958 3.944c0.059 0.241-1.373 0.894-1.373 0.894l-1.016 0.718-0.42-1.312s-0.458-1.004-0.64-1.258c0.267 0.11 1.237 0.239 1.237 0.239l0.182-0.839-0.958 0.062 0.42-1.375 0.896-1.491-3.109-0.24-0.71-0.838-1.558-0.24-0.123-0.659-1.075-0.655-1.316-0.597-1.431 0.179-0.061-1.252 0.365-1.195-1.431-0.238s2.51-2.572 2.45-2.452c-0.064 0.119 7.047-3.529 7.047-3.529l0.839-0.892 1.372-0.123 2.987-1.371 2.271-1.553 0.239 0.12-1.729 1.612-0.478 0.594-1.375 0.659 1.256 0.178-0.183 0.72 1.377-0.24 1.372-1.136 1.08 0.362 0.479 0.533 1.491-0.06-0.06-1.134-2.327-1.671-0.544-0.537-0.236-0.599 1.012 0.124 0.843 0.716 0.894-0.9 1.792-0.235 1.792-1.26-0.116-0.775 1.372-1.313-0.899-0.954 2.392-0.06 2.087 0.06s1.019-0.477 1.199-0.179 1.732 1.431 1.732 1.431l-0.597 0.538-2.453 0.302-0.597 1.191 1.797 0.242 1.371-1.433 1.492-0.121 0.24 1.431s-1.671 0.958-1.909 1.017c-0.239 0.064-1.257 0.537-1.257 0.537l-0.06 1.079-1.613 0.177-1.672-0.296-0.775 0.058-1.257 1.014 1.016 0.896s1.495-0.597 1.733-0.775 1.015-0.539 1.193-0.238c0.179 0.298 1.192 1.134 1.192 1.134l0.843 1.618 0.776 0.237 2.387 0.776s1.675 0.419 1.675 0.536c0 0.12-0.175-1.014-0.175-1.014l-1.263-1.495s-0.055-0.418 0.358-0.302c0.423 0.119 1.44 1.013 1.44 1.013 0.176 0.06 1.373 0.783 1.373 0.783l0.477-1.316 1.074-0.658-0.415-0.777-0.599-0.655-0.656-0.777 0.058-0.895s0.18-0.124 0.359-0.239c0.178-0.118 0.716-0.537 0.837-0.302 0.117 0.239 1.317 1.794 1.317 1.794l1.13 0.237 0.541-0.894s1.491-0.181 1.491-0.12c0 0.06 0.12-0.716 0.12-0.716l1.376-0.357-1.97-1.738-1.074-0.539-0.84 0.24-0.771-0.896 0.834-0.774 0.361-1.078-0.957-0.955-1.494-0.298-0.362-0.78s-1.252-0.178-1.432-0.061c-0.181 0.124-1.076-1.073-1.076-1.073l-0.777-1.014c-0.121-0.061-0.538-0.482-0.776-0.419-0.243 0.06-2.749 0.119-2.749 0.119l-0.597 0.18-0.775-0.6-3.11 0.779-1.611 1.255s-0.118-0.718 0-0.896c0.116-0.179 1.252-0.836 1.432-0.955 0.179-0.119-1.373-0.182-1.373-0.182s-2.87 0.958-2.989 1.137c-0.119 0.178-2.331 1.91-2.331 1.91l0.064 1.435 2.029 0.301 0.776 0.175-0.538 0.481-0.417 0.895-1.313 0.717-1.617 1.193-1.374 0.537-0.237-0.954 1.194-0.717s-0.239-1.491-0.359-1.373c-0.119 0.12-1.372-0.059-1.433 0.12-0.058 0.18 0.061-1.133 0.061-1.133l-0.061-1.257-0.298-0.959s1.017-0.835 1.193-0.894c0.18-0.06 2.092-0.18 2.092-0.18l3.048-1.732-2.511-0.117s-2.327 0.057-2.449 0.299c-0.12 0.239-1.67 1.85-1.67 1.85l-0.957 0.717-3.167 1.975-0.121 1.372-1.313-0.238-0.954-0.18-2.387 0.955v1.314l-4.369 0.242s-2.088-0.302-2.088-0.597c0-0.302-0.776-0.898-1.014-0.898-0.243 0-2.931 0.836-2.931 0.836l-0.119 0.835-3.107-0.176s-2.568 0.474-2.508 0.238c0.06-0.238-1.376-0.121-1.376-0.121l2.151-0.956-1.491-0.717-2.693-0.417-1.91-0.597-2.147 0.299-0.239-0.895-1.916 0.774-0.538-1.255-1.313 0.599s-4.899 1.015-5.139 1.074c-0.237 0.061-1.431-0.478-1.431-0.478l-1.499 0.716-2.864 0.179-1.138-0.835-2.329-0.477-2.57 0.119-4.783-0.779s-2.746-0.418-2.567-0.481c0.179-0.06-1.491-0.478-1.491-0.478s0.067-0.199 0.119-0.315c-0.586 0.248-5.258 1.031-5.258 1.031l-6.272 2.035-4.124 0.835s0.119 1.075 0.177 1.253c0.061 0.183 0.419 1.375 0.419 1.375l-1.134 0.239h-1.2l0.603-0.835-6.101 1.672 0.125 0.657-0.421 0.777 1.912 0.179 1.615 0.179s0.896-0.536 0.896-0.357-0.478 1.55-0.478 1.55l-1.851 0.12c-0.119-0.179-1.077 0.063-1.077 0.063s-1.257 0.771-1.316 0.597c-0.06-0.179-2.506 0.418-2.506 0.418l-2.812 1.614-1.073 1.612-0.119 1.193 2.091-0.355-1.197 1.615 1.375-0.063s1.615 0 1.734 0.243c0.121 0.239 0.835 0.12 0.835 0.239 0 0.121-14.22 5.616-14.341 5.438-0.101-0.183-2.19 0.954-2.19 0.954s2.745-0.477 2.928-0.477c0.178 0 4.239-0.958 4.239-0.958l1.913-0.538s4.124-1.194 4.179-1.374c0.061-0.181 2.931-1.674 3.11-1.674 0.18 0 1.135-0.417 1.197-0.177 0.057 0.238 4.122-1.073 4.122-1.073s1.432-1.019 1.316-1.198c-0.124-0.179-0.958-0.657-0.719-0.715 0.238-0.061 2.386-0.362 2.386-0.362s3.229-1.312 3.17-1.135c-0.06 0.181-3.286 2.334-3.286 2.334l4.602-0.898 1.854-0.779s1.552-0.716 1.433-0.536c-0.12 0.179 1.793 0.715 1.793 0.894s4.001 0.779 4.001 0.779l1.196 1.793-0.242 2.328-0.118 2.931 2.15-0.24-0.535 1.911 0.123 3.169s0.115 1.134 0.115 1.313-1.673-0.357-1.673-0.357-0.24 1.373-0.061 1.551c0.186 0.179 2.155 2.151 2.155 2.151l-0.658 0.838-1.497 3.704-3.525 4.061-0.595 2.216-1.734 1.909 0.299 1.375s-0.478 0.958-0.354 1.076c0.115 0.118 0.834 6.632 0.834 6.632l2.511 1.552 0.655 1.196 0.359 4.899 1.073 2.21-1.193 0.837 1.373 1.908 0.539 0.063 1.079 1.252-0.421 1.675 1.133 0.895 1.078 1.674 0.18 0.835 1.017-1.014-1.017-2.091s-0.717-1.557-0.657-1.911c0.06-0.36-0.954-3.049-0.954-3.049s-0.961-2.033-0.838-2.211c0.116-0.181-0.721-1.372-0.721-1.372l0.421-2.449 1.733 0.358s0.299 2.266 0.299 2.509c0 0.238 0.419 1.673 0.419 1.673l2.269 3.162-0.356 1.616 4.359 5.197-0.06 2.093-0.658 1.013 0.358 1.437 3.647 2.688 0.596-0.118 1.074 1.076 3.942 1.973 1.973 0.479 2.334-0.719 1.492 0.719 2.271 2.628 2.33 0.595 2.387 0.84h1.141l0.299 1.371s1.075 1.376 1.314 1.555c0.237 0.179 0.06 1.734 0.06 1.734l1.014 0.534 1.196 1.257 0.776 0.72 0.839 0.954 0.536-0.358 1.076 0.297 1.55 1.437 1.016-0.601-0.292-1.133 0.948-0.955h0.839l0.898 0.715-0.061 0.837 1.075 1.732 0.061 4.84-0.956 1.556-1.317 0.896-0.056 1.43-1.377 0.537-0.537 1.913-0.838 1.674 0.179 1.432 1.197 1.076-1.078 1.141-0.774 1.132 0.711 2.26s0.357 1.138 0.357 1.017c0-0.119 1.141 0.781 1.141 0.781l2.09 4.177 2.028 2.933s2.951 5.947 3.011 5.994c0.891 0.655 7.393 5.338 7.393 5.338l1.109 5.815 0.324 12.267 0.954 3.51-0.402 7.091-0.315 1.432s1.273 2.23 1.273 2.552c0 0.318 0.238 3.103 0.238 3.103l0.875 3.028 1.035-0.078-0.637-1.752 0.799 0.08 0.553 2.786 0.079 1.113-0.632-0.557-0.56 0.557-0.399 0.48 0.797 0.72-0.397 1.108-0.158 1.438 1.115 0.16 0.796 0.636-0.796 1.354s4.936 8.684 9.08 9.717c4.144 1.04 5.338 1.356 5.338 1.356l1.756-0.957 0.551-0.715-3.661-1.274-2.788-3.032-0.56-1.59 0.876-0.635-0.157-1.198s0-0.875 0.314-1.113c0.322-0.238 0.958-1.434 0.958-1.434l-0.958-0.479-1.591-1.591 0.159-1.837 0.958-0.553s0.077-1.039-0.08-1.277c-0.163-0.236 0.239-1.435 0.478-1.513 0.241-0.082 0.872-1.039 0.872-1.039h-1.11l-0.636-0.236-0.8-1.271v-0.96l1.354 0.398 1.279-0.24 0.716-1.035s-0.239-0.636-0.318-0.874c-0.08-0.238 0.159-1.276 0.397-1.356 0.238-0.075 1.671 0.08 1.671 0.08l2.71-0.715s1.037-1.835 0.958-2.153c-0.08-0.318-0.08-1.354-0.08-1.354s0-0.715-0.636-0.8c-0.641-0.077-0.641-0.312-0.8-0.957-0.162-0.635-0.641-1.352-0.641-1.352l-0.794 0.16 0.719-0.715 1.593 1.191 2.388 0.403 1.834-1.835 1.276-3.108 0.556-2.311h1.193l1.273-2.31 0.481-2.15-0.398-2.632 0.557-0.951 4.141-2.789 3.11-1.037 1.04-0.8s1.588-2.148 1.588-2.387 0.639-3.348 0.639-3.348 0.715-3.66 0.633-3.898c-0.077-0.243 0.162-3.428 0-3.508-0.16-0.078 0.082-0.958 0.082-0.958l3.028-4.3 1.434-3.27s1.04-1.671 0.879-1.989c-0.15-0.35-1.02-3.06-1.02-3.06zm31.5-116.62s0.481-2.393 0.123-2.632c-0.363-0.238 1.434-1.672 1.434-1.672s2.625-1.196 2.745-1.551c0.119-0.361-0.716-0.246-0.716-0.246l0.237-1.79 1.676-0.597s-0.954-1.436-1.197-2.154c-0.236-0.71 2.87-1.072 2.87-1.072l5.497-2.509-6.57 0.716-0.243-0.834-6.93-1.555-13.857 0.481-1.55 0.836h-4.787l-6.689 0.598s-6.333 0.834-6.692 1.072c-0.356 0.241 0.718 0.599 0.718 0.599l-0.119 0.837-7.771 0.958-0.475 0.836s0.835 0.835 0.954 0.955c0.117 0.119 3.346 0.835 3.346 0.835l3.825 0.478s2.152 0.957 2.506 1.312c0.362 0.358 0.246 1.439 0.124 2.036-0.124 0.598-0.478 0.716-0.955 1.433-0.48 0.719 0.955 0.358 0.955 0.358l1.674 0.835s-0.478 0-1.198 0.124c-0.72 0.119-1.674 0.354-1.674 0.354l-0.119 1.319 2.394-0.477-0.246 0.834-1.67 0.358-1.66 2.029-0.121 3.824 0.357 3.226 0.956 2.63 1.555 0.239 1.793 1.076 2.393-0.122 2.386-3.225 2.508-2.39 0.718-1.314 1.198-0.716 2.625-0.596 3.348-0.72s3.103-2.032 3.466-2.271c0.355-0.238 8.959-2.863 8.959-2.863l1.9 0.118zm2.4 8.72l3.346-1.074 0.713-1.313-1.31-1.074-6.098 0.716-1.792-1.078-2.148 1.197s1.074 0.478 1.432 0.716c0.358 0.239 1.075-0.238 1.075-0.238v1.075s1.912 1.074 1.67 1.435c-0.24 0.357 3.11-0.362 3.11-0.362zm5.89 16.29l-0.677 0.442-0.2 0.759 0.598 0.357 0.957 0.199 0.992-0.239 0.842-0.478 0.236-0.238 1.395-0.086 0.159-0.591 0.322-0.6v-1.713l0.756-0.439-0.243-1.112-1.192-0.278-0.955-0.16-0.636 0.198-0.365 0.517s-0.59 0.638-0.473 0.515c0.123-0.115 0.437-0.115 0.362 0.083-0.083 0.198-0.405 0.397-0.405 0.397h-0.47l-0.407-0.239-0.594 0.079-0.201 0.359 0.244 0.558-0.403 0.4 0.478 0.399 0.476 0.115-0.074 0.56-0.55 0.236zm4.74-4.697c0.28 0.116 0.397 0.279 0.358 0.396-0.035 0.124 0.598 0.202 0.598 0.202l0.52-0.118-0.358 0.557s0.078 0.359 0.196 0.519c0.123 0.159 0.522 0 0.522 0s0.957-0.16 1.077-0.12c0.116 0.038-0.043 0.398-0.043 0.398l0.362 0.556s0.195 0.798 0.235 1.035c0.043 0.243-0.319 0.158-0.319 0.158s-0.75 0.119-0.917 0.084c-0.159-0.04-0.474 0.275-0.752 0.592-0.281 0.325 0.04 0.202 0.04 0.202h0.592s0.047 0.396 0.084 0.561c0.036 0.159-0.479 0.315-0.635 0.275-0.159-0.038-0.878 0.321-0.878 0.321l0.037 0.598 0.879 0.079 0.878 0.12 0.159 0.278s-0.564 0.12-0.72 0c-0.159-0.119-0.637 0.637-0.637 0.637l-0.437 0.478-0.92 0.716 0.517 0.24 0.32-0.4 0.801 0.04 0.87-0.119s0.523-0.637 0.643-0.637c0.116 0 1.353-0.038 1.353-0.038s0.996-0.2 1.115-0.12 0.917 0.241 1.041 0.279c0.117 0.039 1.67-0.438 1.67-0.438s0.317-0.517 0.396-0.676c0.083-0.159-0.435-0.318-0.554-0.438s0.396-0.278 0.637-0.397c0.237-0.119 0.317-0.559 0.438-0.756 0.115-0.197-0.161-0.601-0.201-0.717-0.038-0.123-0.597-0.086-0.755-0.123-0.159-0.041-0.836 0.037-0.836 0.037l0.036-0.796s-1.872-2.548-1.832-2.667c0.04-0.116-0.438-0.876-0.637-0.913-0.199-0.04-0.439-0.205-0.678-0.523-0.237-0.316 0.319-0.717 0.319-0.717s0.675-0.716 0.756-0.874c0.08-0.16-0.082-0.637-0.199-0.677-0.121-0.039-1.511 0.04-1.511 0.04s-0.397-0.318-0.36-0.437c0.041-0.125 0.439-0.162 0.56-0.162 0.113 0 0.835-1.391 0.994-1.431 0.158-0.043-0.121-0.398-0.121-0.398l-0.555 0.232-0.518 0.762s-0.482 0.119-0.677 0c-0.197-0.12-0.599 0-0.758-0.04-0.159-0.045-0.523 0.478-0.523 0.478s-0.552 0.597-0.713 0.636c-0.159 0.04-0.717 0.677-0.677 0.716 0.043 0.04 0.079 0.56 0.079 0.56s-0.119 0.196-0.318 0.236c-0.198 0.039 0.158 0.716 0.158 0.716l0.482 0.242s-0.283 0.276-0.441 0.239c-0.16-0.044-0.52 0.4-0.24 0.517zm187.37-8.642c0-0.033-0.018-0.033-0.052-0.013 0.04 0.026 0.05 0.035 0.05 0.013zm-48.91 70.304c0.08-0.119 1.193-0.677 1.232-0.959 0.042-0.273 0.837 2.594 0.837 2.594l0.562 1.99s0.434 1.432 0.594 1.712c0.16 0.281 0.395 2.112 0.395 2.272 0 0.158 0.524 1.23 0.283 1.352-0.244 0.119-0.637 0.039-0.561 0.2 0.084 0.157 0.277 1.035 0.277 1.2 0 0.157-0.117 1.229-0.193 1.429-0.084 0.2-0.119 0.718-0.119 0.953 0 0.241 0.152 0.683 0.152 0.798 0 0.122 0.123 0.32 0.123 0.32s0.162 0.082 0.238-0.12c0.082-0.2 0.678-0.278 0.761-0.2 0.077 0.082 0.992 1.153 1.074 1.476 0.078 0.316 1.074 1.873 1.191 2.031 0.121 0.16 0.641 0.679 0.316 1.115-0.316 0.438-0.316 0.517-0.273 0.755 0.039 0.238 0.16 1.113 0.555 1.597 0.403 0.475 1.234 1.391 1.234 1.391s1.039 0.722 1.199 0.921c0.156 0.197 1.312 0.316 1.435 0.793 0.114 0.477 0.435 0.959 0.435 0.959s0.914 0.276 0.914 0.399c0-0.099-0.006-1.49-0.116-1.68-0.117-0.194-1.072-2.148-1.196-2.266-0.116-0.121-0.315-0.398-0.196-0.911 0.119-0.524-0.081-1.879-0.081-1.879l-1.872-2.232s-1.634-1.594-1.673-1.512c-0.039 0.078-1.277-0.479-1.229-0.957 0.032-0.477-0.129-1.67-0.486-1.95-0.354-0.277-0.673-0.719-0.952-0.877-0.277-0.163-0.078-1.675 0-1.874 0.077-0.199 0.715-1.949 0.678-2.066-0.044-0.119 0.158-1.752 0.158-1.752s0.516-0.684 0.635-0.443c0.123 0.238 0.678 0 0.518 0.717-0.158 0.722-0.076 1.16-0.076 1.16l1.43-0.282 0.999 1.038 0.719 0.953 0.915 0.559s0.238 1.077 0.357 1.152c0.122 0.083 0.718-0.238 0.718-0.238l0.916 0.642s-0.52 0.953-0.396 1.196c0.117 0.238 0.233 1.072 0.233 1.072l0.88-0.718 1.118-0.836 0.557-0.797 0.199-0.596 1.59-0.681 1.515-1.393-0.037-2.949-0.479-1.83-1.354-1.913-2.632-2.627-1.031-1.274s-0.719-0.916-0.682-1.153c0.041-0.243 0.196-1.514 0.196-1.514l0.722-0.679 1.396-1.394s0.955-0.637 1.115-0.479c0.158 0.16 1.432 0.12 1.473 0.238 0.037 0.12 0.204 0.082 0.117 0.318-0.08 0.238 0.039 1.316 0.158 1.436 0.123 0.12 0.403 0.236 0.522 0.278 0.112 0.038 0.516-0.121 0.557-0.359 0.041-0.237-0.041-1.075 0-1.275 0.041-0.198 0.119-0.198 0.24-0.238 0.119-0.04 0.713 0 0.713 0l0.641-0.637 1.113 0.398 1.195-1.038s0.639-0.116 0.719-0.038c0.078 0.083 1.118-0.795 1.118-0.795l1.074-0.24 0.953-0.399s0.398-0.917 0.398-0.799c0 0.121 2.313-2.307 2.313-2.307l0.756-1.873 0.914-2.668 0.557-3.31 0.042-0.954s-0.878 0.715-0.995 0.758c-0.121 0.037-0.836-0.158-0.836-0.158l0.555-0.998s0.32-0.716 0.16-0.756c-0.16-0.041-0.957-0.278-0.957-0.278s0.343-0.784 0.394-0.835c-0.073 0-1.386-1.356-1.386-1.356s-1.755-2.509-1.835-2.312c-0.08 0.2-1.432-0.954-1.556-0.954-0.114 0-0.196 0.039-0.274-0.198-0.08-0.24 1.195-1.913 1.234-2.037 0.039-0.115 1.152-1.353 1.356-1.312 0.194 0.04 0.873 0.079 0.873 0.079s-0.163-0.795-0.28-0.835c-0.116-0.039-2.824-0.278-2.824-0.278s-1.074 0.637-1.115 0.796c-0.046 0.159-0.914 0.081-0.914 0.081l-0.122-0.917-1.081-0.517-1.231-0.438 0.042-0.837s0.753-0.277 0.874-0.363c0.119-0.08 1.074-0.553 1.152-0.955 0.08-0.399 0.719-1.035 0.801-1.155 0.078-0.119 0.594-0.557 0.711-0.477 0.123 0.079 0.884 0.637 0.799 0.677-0.075 0.039-0.593 0.878-0.479 1.113 0.124 0.243 0.681 0.961 0.603 1.078-0.078 0.122-0.32 0.56-0.32 0.56l0.598-0.08s0.756-0.597 0.715-0.676c-0.039-0.086 0.598-0.758 0.717-0.758s1.437-0.283 1.471-0.164c0.043 0.121 1.358 0.438 1.358 0.438l0.24 2.394s3.187 0.756 3.187 0.956c0 0.198-0.36 0.515-0.36 0.515s-0.04 0.638 0.12 0.72c0.158 0.076 0.675 0.515 0.797 0.677 0.124 0.159 0.36 1.237 0.36 1.237s-0.436 0.954-0.36 1.074c0.078 0.121 0.876 0.836 0.876 0.836l2.272-0.876s1.232-0.955 1.232-1.074c0-0.122-1.312-3.308-1.312-3.308l-3.03-2.076-1.31-1.074 1.83-1.79-0.16-1.552s0.398-1.519 0.478-1.519c0.084 0 1.196-0.794 1.196-0.794l1.273 0.881 1.913-1.198 1.076-3.86 0.039-5.023-1.713-3.066s-0.795-1.872-0.919-1.872c-0.119 0-1.271-1.796-1.271-1.796l-2.669-1.192-1.158-0.04-0.714 1.193-0.754-0.915-1.036-1.83 0.117 1.114s0.16 0.716 0.112 0.875c-0.03 0.159-0.792-0.996-0.792-0.996s-1.274-0.237-1.353-0.237c-0.077 0-0.717-0.362-0.717-0.362s1.879-2.185 1.716-2.107c-0.158 0.078 0.318-2.788 0.318-2.788s0.676-1.357 0.715-1.277c0.041 0.081 2.625-0.278 2.625-0.278s4.741-0.077 4.702 0c-0.039 0.083 2.313-0.156 2.313-0.156s0.076 0.677 0.282 0.757c0.194 0.078 2.105-0.043 2.105-0.043l1.395-0.317 0.674-0.082s-0.834-0.835-0.955-0.835c-0.119 0-0.914-0.361-0.992-0.401-0.083-0.04 0.596-1.55 0.555-1.79-0.037-0.24-0.117-1.075 0.199-0.995 0.318 0.081 2.474 0.081 2.474 0.081s0.872 0.833 0.872 1.073c0 0.238 1.395 1.074 1.395 1.074s0.759-0.836 0.836-0.994c0.067-0.127 0.47-0.576 0.624-0.65-0.192-0.157-0.818-0.982-0.818-0.982s0.674-0.759 1.031-0.361c0.363 0.399 1.156 2.111 1.156 2.111s-0.719 1.791-0.719 1.953c0 0.156-0.277 1.794-0.277 1.915 0 0.118-0.798 0.834-0.798 0.834s-0.394 0-0.394 0.199c0 0.198 0.552 1.272 0.552 1.272s0.206 1.237 0.318 1.312c0.122 0.087 4.107 3.547 4.107 3.547l2.587 2.554 1.677 1.391 0.475-0.118s0.401-1.95 0.241-1.875c-0.161 0.083-0.799-0.594-0.716-0.711 0.077-0.127 0.236-0.685 0.433-0.644 0.203 0.043 0.799 0.158 0.799 0.158l-1.195-1.512 0.396-0.834 0.92 0.278-1.236-1.313-0.637-1.277s0.677 0.158 0.722 0.276c0.035 0.127 0.755-0.511 0.515-0.554-0.241-0.044-1.674-0.56-1.674-0.68 0-0.118-0.834-0.317-0.88-0.478-0.036-0.158 0.161-0.795 0.046-0.795-0.119 0-1.354-0.557-1.354-0.557l-0.802 0.115-0.438-0.871 0.238-0.677s-0.763-1.084-0.832-1.153c0.061 0.055 1.702-0.572 1.858-0.639-0.008 0.026 0.776-0.065 0.845 0.234 0.083 0.321 0.438 0.64 0.438 0.64l0.841-0.796s0.596-0.52 0.835-0.402c0.239 0.119 1.394 0.363 1.557 0.519 0.142 0.146 0.867 0.352 0.979 0.483-0.011-0.167 0.014-0.684 0.014-0.684l0.034-0.437 1.123-1.512s0.433-0.636 0.836-0.72c0.398-0.076 1.232-0.793 1.391-0.672 0.16 0.117 1.481 0.08 1.64 0.438 0.156 0.357 0.873-0.12 0.873-0.12s-0.681-0.835-0.717-0.758c-0.037 0.079-2.233-0.879-2.351-0.835-0.121 0.036-1.59-0.878-1.59-0.878s-0.761-0.279-0.797-0.279c-0.039 0 0.593-0.319 0.831-0.399 0.241-0.078 0.8-0.835 0.8-0.835s-0.277-0.517-0.439-0.677c-0.161-0.158 0.877-0.039 1.234 0.12s2.155 0.238 2.112 0.358c-0.044 0.118 1.195 0.118 1.154 0.438-0.041 0.319 0.438 0.396 0.598 0.557 0.16 0.16 1.673 0.398 1.755 0.438 0.073 0.039 1.587-0.119 1.587 0.118 0 0.24 0.48-0.038 0.48-0.038s-0.238-1.154-0.517-1.075c-0.282 0.079-0.802-0.319-0.44-0.397 0.36-0.079 1.037-0.478 0.839-0.558-0.202-0.078-0.519-0.478-0.997-0.679-0.476-0.199-2.389-0.633-2.588-0.558-0.197 0.083-3.188-0.639-3.381-0.639-0.204 0-1.239-0.275-1.239-0.275l-10.197-2.749s-6.333-0.676-6.296-0.799c0.043-0.116-3.663-0.437-3.663-0.437l2.194 1.833-2.194-0.317s-2.706-0.438-2.786-0.558c-0.082-0.118-7.572-0.159-7.572-0.159l-1.113-1.2s-3.587-0.592-3.706-0.632c-0.119-0.044-4.582 0-4.582 0l-3.737-0.558s-2.513-1.078-3.071-0.957c-0.557 0.12-6.054-0.358-6.374-0.519-0.316-0.16-2.504 0.16-2.504 0.16l1.783 1.355-2.942-0.082-2.948-0.041-1.118-0.556 0.046 1.634s-0.839 0.155-0.839-0.043c0-0.199-2.591-1.113-2.591-1.113s-2.154-1.91-2.19-1.79c-0.041 0.118-3.498-0.678-3.498-0.678l-2.158-0.396s-0.637 0.277-0.559 0.437c0.08 0.159 0.916 0.716 0.797 0.835-0.119 0.118-1.43-0.119-1.43-0.119l-3.387-0.119-0.602-0.637-4.461 0.04s-1.672-1.316-1.714-1.24c-0.036 0.08-1.273 0.286-1.273 0.286l-0.957 1.033-2.706 0.2 2.912-1.555 1.035-0.755c0.075-0.204-0.724-1.396-0.878-1.238-0.157 0.161-2.433-0.557-2.552-0.557s-3.545-0.08-3.545-0.08c-0.242-0.039-1.314 0-1.314 0s-0.398-1.113-0.598-1.074c-0.197 0.04-2.79-0.04-2.79-0.04s-2.308 0.478-2.395 0.716c-0.071 0.241 0.444 0.478 0.444 0.478s-1.234 0.916-1.355 0.836c-0.117-0.08-3.706-0.08-3.706-0.08s-4.978 1.074-4.978 0.954c0-0.102-1.49 0.534-1.837 0.687 0.293 0.257 1.338 0.852 1.2 0.992-0.158 0.158-3.507 0.318-3.626 0.078-0.107-0.219-1.431 0.286-1.641 0.318 0.241 0.1 1.809 1.326 1.918 1.513 0.119 0.198 0.407 0.478 0.797 0.318 0.398-0.159 0.756-0.318 0.838-0.159 0.08 0.159 0 0.517 0 0.517s-0.998 0.2-1.113 0.2c-0.114 0-1.316-0.678-1.436-0.717-0.117-0.04-1.711-0.398-1.912-0.398-0.204 0-1.079 0.119-1.079 0.119s-0.676 0.598-0.518 0.678c0.165 0.079 0.562 0.835 0.683 0.758 0.117-0.083 0.836-0.401 0.873-0.041 0.041 0.354-0.834 0.638-0.834 0.638s-1.2-0.482-1.239-0.598c-0.039-0.124-0.598-0.798-0.598-1.157s-0.715-1.632-0.914-1.434c-0.197 0.2-0.914 0.279-0.914 0.279l0.877 0.796s0.754 0.635 0.555 0.677c-0.197 0.04-0.756 0.357-0.793 0.478-0.041 0.119-0.479 0.794 0.037 0.794 0.518 0 1.355 0.8 1.355 0.8s0.039 1.077 0.117 1.236c0.08 0.159 1.312 0.994 1.312 0.994s0.763-0.478 0.875-0.596c0.126-0.12 1.162-0.318 1.4-0.08 0.239 0.238-0.48 0.835-0.677 0.717-0.201-0.121-0.637-0.24-0.836-0.161-0.203 0.079-0.203 0.079-0.203 0.079s-0.277 0.598 0 0.717c0.281 0.121 0.644 0.519 0.602 0.717-0.043 0.198-0.797 1.554-0.797 1.554l-1.118 0.238c-0.398-0.079-1.033-0.358-1.033-0.358l1.194-0.914 0.16-1.237s0.041-0.079-0.277-0.358c-0.325-0.277-1.437-1.272-1.437-1.272s-0.676-1.117-0.676-1.236c0-0.125-0.318-0.72-0.318-0.72s-0.758-0.517-0.918-0.553c-0.156-0.041-0.156-0.481-0.035-0.719 0.117-0.24-0.121-1.313-0.162-1.155-0.046 0.16-1.397-0.039-1.558-0.079-0.16-0.039-0.516-0.478-0.516-0.478s-0.197-0.674-0.521-0.397c-0.315 0.278-0.872 0.397-0.872 0.397l-0.557 1.472 0.158 0.598-1.115 0.759s0.941 0.809 1.028 0.871c-0.068-0.033 0.05 0.803 0.087 1.001 0.036 0.199 1.711 0.638 1.711 0.638s0.877 0.357 0.955 0.715c0.082 0.358-0.24 0.797-0.24 0.797l-1.709-0.797-3.788-1.193s-3.66-0.238-3.583-0.357c0.083-0.119-1.396-0.958-1.396-0.958l-0.837 0.437s0.795 0.561 0.919 0.596c0.119 0.044 1.314 0.482 1.314 0.482s0.36 0.199 0.438 0.518c0.083 0.317-0.676 0.715-0.676 0.715s-0.516-0.557-0.516-0.675c0-0.12-0.123-0.598-0.281-0.519-0.16 0.08-1.633 0.837-1.633 0.837s-1.673 0.039-1.874 0.198c-0.199 0.159-1.274 0.918-1.354 0.717-0.082-0.199 0.158-1.035 0.122-1.194-0.042-0.159-1.675 0.28-1.675 0.28s-2.108 0.675-2.191 0.873c-0.078 0.202-1.033 0.399-1.197 0.439-0.158 0.04-0.355 0.04-0.355 0.04s-0.834 0.52-0.678 0.795c0.16 0.28-1.155 0.437-1.155 0.437s-0.834-0.516-0.873-0.632c-0.038-0.109 0.905-0.743 0.995-0.797-0.122 0.079-0.995-1.036-1.116-1.076-0.105-0.032-2.27 0.024-2.656 0.008 0.252 0.092 1.023 0.838 1.023 0.948 0 0.12 0.121 1.276 0.121 1.276s0.632 0.401 0.754 0.354c0.119-0.036-0.122 0.68-0.122 0.68l-1.069-0.119s-0.444-0.641-0.802-0.279c-0.359 0.362-1.551 1.277-1.629 1.158-0.082-0.12-0.758 0.119-0.718 0.358 0.041 0.24 0.558 0.755 0.558 0.755s-0.755 0.637-0.681 0.4c0.083-0.242-2.067-0.797-2.228-0.757-0.165 0.04-1.079 0.319-1.079 0.319l0.396 0.676s1.198 0.079 1.355 0.318c0.165 0.238-0.274 0.716-0.4 0.716-0.112 0-2.902-1.314-2.902-1.314s-0.918-0.954-0.642-1.232c0.286-0.279 0.522-0.716 0-0.716-0.515 0-1.072-0.401-1.108-0.56-0.042-0.159 3.141 0.322 3.141 0.322l1.837 0.196s-0.238 0.242 0.479 0c0.714-0.239 1.91-0.839 2.07-0.873 0.16-0.047 0.355-0.802 0.355-0.802l-0.238-0.676-6.847-1.632s-2.274-0.677-2.313-0.796-2.032-0.321-2.032-0.321l-0.958 0.123 0.802-0.998s-3.112-0.919-3.188-0.8c-0.084 0.119-1.356 0.724-1.356 0.724l-2.389-0.401-3.07 0.716-3.108 0.759-4.498 1.91 1.673 0.159-0.721 1.233-1.992 1.479-1.111 1.829-0.16 0.996-1.074 1.153s-0.756-0.397-0.915-0.554c-0.158-0.163-2.791 0.752-2.791 0.752l-1.591 1.515s-0.398 0.759-0.478 0.958c-0.083 0.201 0.119 2.312 0.119 2.312s0.956 0 0.676 0.278c-0.28 0.277-0.24 1.555-0.24 1.555l1.117 0.752s1.472 0.482 1.677 0.44c0.191-0.039 0.913-0.517 1.035-0.597 0.111-0.078 0.993-0.954 1.271-0.918 0.278 0.044 0.994-0.758 1.077-0.474 0.078 0.279 0.239 1.274 0.396 1.513 0.159 0.239 0.716 0.677 0.954 1.232 0.237 0.559 0.564 1.119 0.48 1.233-0.083 0.124-0.639 0.677-0.639 0.677s-1.191 0.159-1.353 0.324c-0.158 0.157-0.357 0.236-0.477 0.157-0.123-0.08 0.397-0.64 0.517-0.793 0.121-0.163-0.278-0.801-0.438-0.762-0.162 0.042-0.317-0.358-0.162-0.477 0.162-0.12 0.122-0.876 0.122-0.876s-0.239-0.121-0.357-0.079c-0.12 0.04-1.514 0.596-1.514 0.596s-0.756 0.797-0.796 0.955c-0.043 0.164-0.362 0.998-0.158 1.593 0.198 0.601 0.675 1.557 0.675 1.557s0.513 0.356 0.318 0.517c-0.196 0.158-0.6 0.756-0.6 0.756l-0.951 0.039s-1.713 0.203-1.875 0.279c-0.157 0.082-1.828 0.596-1.753 0.758 0.084 0.159-0.36 1.874-0.36 1.874-0.077 0.04-1.751 1.234-1.949 1.234-0.199 0-1.433 0.317-1.433 0.317s-0.558 1.474-0.596 1.393c-0.04-0.081-1.877 0.876-1.877 0.876s-1.392-0.399-1.432-0.56c-0.04-0.158-0.519-0.516-0.557-0.396-0.042 0.121 0.476 1.36 0.476 1.599 0 0.233 0.081 0.712-0.079 0.556-0.16-0.163-0.956-0.397-1.114-0.478-0.163-0.078-1.515-0.042-1.515-0.042h-0.558s-0.679 0.6-0.719 0.479c-0.037-0.121-0.077 0.52-0.077 0.52l0.396 0.396 1.438 0.597 1.353 0.837 0.518 1.273 0.596 1.195s-0.399 2.469-0.473 2.592c-0.088 0.117-0.921 0.678-0.921 0.678l-2.591-0.044s-1.275-0.277-1.394-0.317c-0.119-0.042-1.913 0.238-1.948 0.079-0.04-0.161-0.6-0.121-0.6-0.121l-0.282-0.317h-0.716l-0.597 0.675-0.876 0.044v0.713s0.358 1.637 0.318 1.518c-0.04-0.123-0.158 1.909-0.158 1.909s-0.861 1.731-0.948 1.863c0.019 0.052-0.047 1.165-0.047 1.165l0.519 0.838 0.079 0.993s-0.399 0.915-0.239 0.836c0.161-0.081 1.437 0.039 1.472-0.119 0.04-0.158 0.799-0.517 0.915-0.24 0.118 0.278 0.56 0 0.684 0.482 0.111 0.477 0.553 1.153 0.596 1.271 0.039 0.124 0.357 0.239 0.357 0.239l0.119 0.322-0.242 0.2-0.99 2.227-2.196 1.555-1.312 0.834-0.359 0.999-0.556 0.637-0.16 1.234s0.16 1.551 0.077 1.633c-0.077 0.079-2.986 2.828-2.986 2.828l-1.593 0.358-0.88 1.515s-1.194 1.112-1.271 1.316c-0.083 0.196-0.679 0.956-0.679 0.956s0.04 1.59 0 1.353c-0.041-0.239-1.711 1.312-1.711 1.312s-0.318 1.833-0.397 1.915c-0.079 0.076-0.875 1.472-0.998 1.432-0.119-0.041-0.238 0.955-0.238 1.115 0 0.158 0.396 0.635 0.396 0.635s0.562 1.08 0.6 0.96c0.038-0.123 0.038 0.36 0.038 0.36l-0.555 0.554s0.598 0.919 0.598 1.038v2.466l-0.64 1.357-0.318 1.754-0.959 0.755 0.04 0.479 0.838 0.675 0.123 0.755-0.243 0.839v0.84l0.601 1.394s0.597 0.477 0.716 0.357 1.31 0.756 1.472 1.033c0.16 0.279 1.631 2.032 1.631 2.114 0 0.078 0.24 0.477 0.24 0.477l0.716 2.43s3.466 2.866 3.546 2.748c0.08-0.116 3.705 2.587 3.705 2.587s2.912-1.43 2.873-1.309c-0.043 0.117 2.465-0.121 2.465-0.121l1.516 0.238 1.111 0.518 4.067-1.869 0.797-0.604 3.144-0.115 1.516 0.591s0.995 1.479 0.995 1.718 0.598 1.312 0.679 1.152c0.077-0.155 3.545-0.315 3.667-0.277 0.115 0.039 1.63 1.517 1.63 1.517l-0.079 1.396-0.241 2.466-0.479 1.196-0.473 1.077-0.119 0.757s3.579 5.258 3.579 5.297 0.917 2.188 0.917 2.188l1.08 2.752 0.638 1.55-0.638 0.876 1.036 2.674-0.36 2.625-1.554 3.389-0.676 2.508 0.199 3.346 1.866 3.864 1.955 4.422 0.199 4.862 1.557 2.904 1.118 2.348 1.074 2.553 0.555 0.757s0.083 1.275-0.043 1.275c-0.117 0-0.712 0.043-0.552 0.277 0.158 0.238 1.072 1.833 1.072 1.833l0.039 0.719 1.273 0.713 1.123-0.516s1.113-0.197 1.234-0.158c0.117 0.039 1.668-0.52 1.668-0.52l2.391 0.359 1.674-0.875 1.833-0.119s3.146-3.069 3.146-2.989 2.902-3.742 2.902-3.742l1.481-1.278 0.833-2.508-0.118-1.629s0.28-0.843 0.556-1.001c0.282-0.158 2.987-1.751 2.987-1.751l0.563-2.631-0.522-2.591s-0.4-0.991-0.4-1.152c0-0.157 0.279-0.879 0.279-0.879l2.632-2.349s0.596-0.757 0.875-1.035c0.28-0.278 2.745-1.352 2.745-1.352l1.677-1.63 0.279-6.018s-0.598-2.236-0.637-2.431c-0.039-0.204-1.194-3.983-1.194-4.145 0-0.157-0.398-2.47-0.443-2.672-0.032-0.192 0.914-2.863 0.914-2.863l1.319-2.593 5.38-6.173 3.03-2.426 4.579-7.493 1.475-3.467 0.315-3.501-0.953-0.16s-0.48 0.557-0.599 0.635c-0.12 0.082-2.868 0.242-2.868 0.242l-3.347 0.992-1.633 0.598-1.593-1.67 0.238-1.194-2.148-2.553-3.029-3.022s-1.519-1.158-1.437-1.274c0.082-0.123-0.839-2.911-0.839-2.831s-1.512-1.392-1.512-1.392l-0.039-2.672-1.633-2.665-1.789-3.27s-1.517-3.746-1.677-3.945c-0.156-0.198-0.754-1.192-0.557-1.153 0.199 0.041 1.633-0.159 1.633-0.159s2.667 3.149 2.667 3.308 1.597 2.825 1.597 2.825 1.193 1.675 1.193 1.552c0-0.113 0.279 1.554 0.238 1.677-0.039 0.12 0.717 1.953 0.717 1.953l2.272 2.033 0.477 1.471 2.071 2.27 0.401 1.436-1.397-1.279s-0.438 0.719-0.279 0.842c0.158 0.116 1.553 1.591 1.553 1.591l0.683 2.029 0.518 1.915 0.754 0.637 2.233-0.437 0.395-0.88h2.192l0.955-0.715 1.191-0.16s0.918-0.917 0.997-0.957c0.082-0.04 3.627-1.59 3.627-1.59s0.077-1.16 0.238-1.16c0.16 0 3.708-1.115 3.708-1.115l0.357-1.353 1.271-0.08 0.359-0.914 1.235-0.756 0.155-1.993 0.919 0.276 0.281-0.678-0.318-0.433 1.395-2.031 0.039-0.721-1.355-1.234-0.635-0.676s-2.153-0.242-2.235-0.401c-0.078-0.16-0.914-2.073-0.914-2.073 0-0.594 0.039-1.673-0.082-1.591-0.115 0.079-0.793 0.835-0.793 0.835l-2.465 2.272-2.156 0.557s-0.714-0.199-0.756-0.317c-0.039-0.12-0.119-1.954-0.119-1.954s-0.92-1.075-0.956-1.233c-0.039-0.16-0.719 1.396-0.719 1.396s-1.036-1.396-0.919-1.44c0.119-0.037-0.477-1.392-0.477-1.392l-2.068-2.387-0.119-1.237s0.996-1.078 1.154-1.118c0.158-0.039 1.592-0.237 1.753 0.283 0.16 0.513 1.355 2.272 1.355 2.51s1.829 1.83 2.031 1.79c0.196-0.039 0.911 0.358 1.154 0.518 0.238 0.159 0.713 0.438 0.914 0.64 0.199 0.195 0.717 0.079 0.717 0.079l1.315-0.201s1.074-1.036 1.117-0.836c0.035 0.203 1.271 0.282 1.113 0.557-0.16 0.28 0.044 1.079 0.158 1.317 0.124 0.241 5.497 1.077 5.497 1.077l2.474 0.318s2.623-0.241 2.783-0.241c0.158 0 1.837 0.163 1.995 0.117 0.156-0.035 2.547 2.591 2.547 2.591l2.231 1.12 0.515-0.042-1.268 0.559s0.432 0.996 0.432 1.114c0 0.12 2.233 1.714 2.233 1.714s0.795-0.521 0.914-0.521c0.122 0 0.679-0.198 0.72-0.477 0.039-0.278-0.122-1.073 0.078-1.153 0.203-0.08 0.476-0.321 0.523 0.04 0.035 0.356 0.521 3.782 0.438 3.819-0.087 0.047 0.676 2.592 0.676 2.711 0 0.12 0.996 3.229 1.033 3.348 0.041 0.118 1.672 3.623 1.791 3.743 0.117 0.12 1.714 4.26 1.714 4.26s0.918 1.714 0.877 1.995c-0.039 0.279 0.32 1.632 0.56 1.792 0.238 0.159 1.311 0.558 1.311 0.558s0.596-0.521 0.64-0.677c0.036-0.158 0.477-0.875 0.632-1.113 0.161-0.243 0.885-0.318 0.921-0.161 0.037 0.161 0.878 0.558 0.878 0.558l-0.087 1.95s0.164 1.271 0.281 1.757c0.126 0.477 1.118 0.875 1.118 0.875l1.195-1.075 0.516-1.837-1.191-1.789s-0.914-0.995-1.035-1.118c-0.121-0.115-0.884-0.234-0.884-0.234s0.087 0.399 0.164 0.555c0.083 0.16-0.164 0.202-0.164 0.202l-0.914-0.357 0.16-1.045s0.685-0.117 0.802-0.117c0.116 0-0.048-1.592-0.048-1.592s0.247-2.825 0.327-2.905c0.08-0.083-0.121-2.868-0.44-2.986-0.315-0.12 0-1.035 0.161-1.076 0.158-0.042 1.711-0.597 1.711-0.597l0.873-1.713s1.558-1.078 1.677-1.158c0.117-0.08 1.908-1.988 1.908-2.231 0-0.235 0.204-0.833 0.679-0.918 0.479-0.075 1.358-0.713 1.358-0.713v-1.316s0.158-0.637 0.516-0.795c0.355-0.16 1.273-0.281 1.273-0.281s0.202 0.519 0.08 0.597c-0.121 0.082 2.03-0.597 2.03-0.597s0.955 0 1.115-0.038c0.163-0.042 0.64-0.755 0.64-0.755s-0.204-0.641 0.073-0.483c0.284 0.165 0.962 0.88 0.884 1-0.085 0.114 0.395 0.913 0.279 1.231-0.123 0.318 1.831 2.474 1.831 2.474s0.952-0.441 0.875-0.122c-0.083 0.318-0.277 1.317-0.277 1.317s0.598 0.396 0.834 0.437c0.24 0.039 0.917 1.353 0.917 1.353s-0.16 1.192-0.16 1.352 0.086 1.317 0.039 1.517c-0.039 0.198 1.633 0.562 1.633 0.562s1.35-1.084 1.43-1.206zm-118.1-59.191l1.317-1.116 0.281-1.077s1.232 0.201 1.269 0.36c0.039 0.157 0.323-0.36 0.636-0.079 0.322 0.278 0.721 0.235 0.762 0.476 0.035 0.24 0.277 0.519 0.316 0.359s0.039-0.677 0.039-0.677-0.355-0.198-0.557-0.322c-0.201-0.118-0.159-0.477 0.041-0.592 0.196-0.119 0.754-0.444 0.915-0.322 0.16 0.116 0.878-0.159 0.878-0.159s0.119-0.243 0.197-0.357c0.083-0.124 0.481-1.197 0.481-1.197s-0.284-0.119-0.362-0.479c-0.08-0.356 0.44-1.393 0.562-1.431 0.114-0.041 1.674-0.959 1.674-0.959s0.596-0.639 0.357-0.835c-0.241-0.202-2.032-1.077-2.032-1.276s-0.199-1.235-0.083-1.631c0.121-0.397 0.84-1.157 0.958-1.317 0.121-0.155 0.997-1.232 1.157-1.196 0.16 0.043 0.756-0.08 0.912-0.156 0.163-0.083 1.553-0.719 1.315-0.758-0.238-0.04 0.081-0.756-0.041-0.717-0.119 0.039 0.122-0.915 0.401-0.994 0.277-0.079 0.754-0.438 0.879-0.438 0.112 0 1.075 0.04 1.313 0.079 0.238 0.04 1.074-0.357 1.193 0 0.119 0.358 0.435 0.438 0.16 0.557-0.279 0.12-0.916 0.678-1.315 1.034-0.396 0.357-1.594 1.159-1.754 1.195-0.156 0.042-0.243 0.119-0.559 0.321-0.318 0.195-0.318-0.278-0.394 0.476-0.083 0.758-0.199 1.593-0.043 1.875 0.16 0.278 0.277 0.716 0.119 0.916s-0.041 0.319 0 0.677 0.527 0.516 0.561 0.676c0.037 0.159 0.674 0.477 0.674 0.477 0.318-0.036 0.685-0.077 0.758 0.083 0.083 0.159 0.243 0.08 0.243 0.08l0.671-0.163s0.681-0.398 0.921-0.358c0.238 0.04 0.555-0.079 0.834 0 0.279 0.08 1.472-0.318 1.636-0.279 0.158 0.044 1.27-0.437 1.353-0.277 0.08 0.159 0.678 0.119 0.678 0.119l0.479 0.358c0 0.238-0.479 0.795-0.596 0.878-0.121 0.078-0.518 0.401-0.757 0.318-0.238-0.077-0.402 0.04-0.72-0.077-0.319-0.122-0.917-0.284-1.078-0.284-0.159 0-2.027 0.444-2.027 0.444l-0.953 0.276-0.165 0.56 0.121 0.119 0.956 0.596c0 0.201 0.401 0.08 0.318 0.558-0.078 0.477-0.119 0.676-0.238 0.914-0.122 0.24-0.598 0.678-0.717 0.398-0.119-0.278-0.714-0.796-0.875-0.915-0.156-0.119-0.634-0.04-0.92-0.04-0.277 0-0.836 0.399-0.836 0.837 0 0.437-0.277 1-0.16 1.431 0.121 0.444 0.641 1.002 0.403 1.279-0.243 0.28-0.797 0.479-1.035 0.597-0.238 0.12-0.8 0.518-0.997 0.597-0.199 0.079-0.797 0.318-0.918 0.04-0.117-0.28-0.357-0.717-0.357-0.717s-0.199-0.396-0.282-0.277c-0.071 0.115-0.516 0.16-0.516 0.16l-1.031 0.397s-0.562 0.397-0.679 0.477c-0.123 0.079-0.719 0.079-0.958 0.198-0.238 0.121-0.956 0.718-1.153 0.439-0.202-0.277-0.317 0.199-0.563-0.239-0.233-0.437-0.157-0.916-0.438-0.834-0.275 0.08-0.917 0.238-0.992 0.397-0.083 0.159-0.162 0.159-0.316 0.318-0.16 0.158-1.317 0.278-1.317 0.278v-0.079zm33 29.496c-0.298 0.778-0.298 1.792-0.719 2.57-0.42 0.773-0.599 1.191-0.896 1.675-0.3 0.472-0.3 1.132-0.776 1.43-0.477 0.301-1.193 0.718-1.612 0.42-0.415-0.3-2.09-0.239-2.274-0.179-0.177 0.06-2.206-0.06-2.447 0.355-0.238 0.42-1.786 0.122-2.033 0-0.238-0.118-3.164-1.315-3.402-1.372-0.238-0.059-1.738-0.715-1.979-0.894-0.238-0.181-1.729-0.363-1.787-0.541-0.061-0.18 0.119-0.418-0.124-0.358-0.234 0.055-1.97 0.597-2.208 0.772-0.243 0.186-0.773 0.663-0.773 0.663s-0.723 0.716-0.663 1.253c0.064 0.538 0.719 0.956 0.481 1.254s-1.074 0.656-1.074 0.656-0.902-0.835-1.196-0.954c-0.299-0.12-3.104-0.537-3.104-0.537l-1.136-1.314s-1.792-1.196-1.972-1.256c-0.181-0.059-2.152 0-2.454-0.238-0.3-0.243-1.255-1.495-1.731-1.434-0.479 0.059-0.298-0.717-0.119-0.836 0.178-0.119 0.716-1.135 0.657-1.314-0.062-0.181 0.298-1.193-0.298-1.491-0.597-0.306-0.181-1.321-0.181-1.321s0.599-0.119 0.36-0.119-1.135 0.06-1.376-0.238c-0.235-0.299-0.302-0.417-0.534-0.299-0.244 0.121-1.738 0.359-1.915 0.299-0.181-0.059-1.612 0.119-1.851 0.119-0.238 0 0.06 0.061-0.238 0-0.303-0.06-1.499 0.481-1.557 0.716-0.055 0.239-1.251-0.055-1.432 0-0.182 0.06-1.913 0.06-1.913 0.06l-2.87 0.478s-1.911 0.962-1.97 1.26c-0.06 0.299-0.658 0.777-0.836 0.893-0.177 0.121-1.252 0-1.318-0.178-0.056-0.179-1.971 0.062-1.971 0.062s-0.775-0.421-1.014-0.24c-0.238 0.179-0.238-0.779-0.238-0.779l0.298-0.711 1.074-0.719 2.573-0.482 1.255-0.833 0.773-0.299 0.476-1.253s0.897-0.179 0.837-0.361c-0.059-0.179-0.294-1.016-0.294-1.016l1.729-2.687 2.449-1.196 0.419-0.837s-0.235-1.074-0.059-1.256c0.178-0.18 1.792-0.539 1.792-0.539l2.033 0.658s1.074-0.715 1.312-0.835c0.238-0.121 1.376-0.776 1.376-0.776s0.116-0.537 0.356-0.478c0.239 0.059 1.255-0.179 1.377 0.299 0.119 0.478 1.015 1.973 1.015 1.973l1.373 1.435 1.317 1.016 1.614 0.595s0.954 0.837 1.132 0.897c0.179 0.058 1.074 1.077 1.074 1.077l0.477 0.833s-0.297 0.66-0.536 0.96c-0.238 0.295-0.955 1.075-1.135 1.011-0.18-0.055-1.557-0.294-1.557-0.294l-1.492 0.178s-0.235 0.359 0.182 0.657c0.418 0.298 0.895 0.24 1.311 0.478 0.425 0.238 1.499 0.719 1.499 0.719s0.719 0.116 0.719 0.294c0 0.18 0.236-0.478 0.176-0.895-0.059-0.417-0.121-0.953 0.298-1.074 0.421-0.119 1.075 0 1.075-0.181 0-0.178 0.183-0.42 0.183-0.42l0.537-0.652-0.06-0.417 0.541-0.425s-0.298-0.351-0.541-0.654c-0.236-0.3-0.477-0.479-0.304-0.778 0.183-0.297 0.778-0.717 1.083-0.477 0.297 0.238 1.191 0.357 1.131 0.658-0.057 0.296 0 0.713 0.122 0.478 0.115-0.241 0.06-1.197 0.06-1.197s-0.479-0.655-0.898-0.715c-0.414-0.062-1.498-0.598-1.794-0.717-0.297-0.12-0.833-0.417-0.833-0.417s0.236-0.657-0.117-0.597c-0.362 0.059-1.436-0.123-1.436-0.299 0-0.183-1.077-1.021-1.132-1.196-0.06-0.183-1.019-1.496-1.019-1.496s-0.541-0.537-0.598-0.716c-0.062-0.18-0.119-0.479-0.239-0.955-0.123-0.478 1.193-1.673 1.134-1.495-0.061 0.176 0.3 0.418 0.542 0.955 0.235 0.54 1.192 1.435 1.312 1.793 0.118 0.357 1.436 1.376 1.73 1.492 0.304 0.118 0.477 0.48 1.077 0.718 0.6 0.24 0.542 0.355 1.317 0.716 0.773 0.359 0.895 0.482 1.01 0.657 0.124 0.182 0.598 0.123 0.781 0.421 0.178 0.297 0.417 0.358 0.417 0.656 0 0.297 0.243 0.297 0.117 0.895-0.117 0.597-0.295 0.776-0.234 0.895 0.06 0.122 1.136 2.334 1.555 2.334 0.417 0 1.67 0.478 1.491 1.192-0.178 0.716 0.775 1.673 0.775 1.673s0.799 0.051 1.351 0.143c0.023-0.417-0.065-1.086 0.388-1.339 0.532-0.299 1.31-0.6 1.189-0.895-0.122-0.298-0.241-0.838-0.717-1.194-0.472-0.357-0.956-0.543-1.075-1.134-0.117-0.599-0.299-1.379 0.238-1.138 0.537 0.237 1.016 1.378 1.26 0.596 0.235-0.775 0.831-1.314 1.248-1.134 0.423 0.179 1.2 0.477 1.14 0.716-0.061 0.239 0.537 2.154 0.537 2.154s0.238 0.181 0.357 1.075 0.895 1.134 0.778 1.433c-0.121 0.296-0.481 0.475 0.479 0.597 0.951 0.12 1.852 0.297 1.852 0.536 0 0.24 0.776 0.364 0.896 0.54 0.117 0.18 0.834 0.537 0.955 0.18 0.119-0.355 0.359-1.078 0.538-0.958 0.179 0.124 1.672 0.124 1.793 0.604 0.124 0.471 1.137 0.471 1.137 0.598 0 0.115 0.896-0.299 0.896-0.299s1.253-0.958 1.612-0.779c0.357 0.179 1.37-0.661 1.251 0.116-0.14 0.777 0.64 1.496 0.34 2.271zm5.97-10.516c-0.176 0.181-1.315 1.314-1.315 1.314l-2.271-0.3h-1.552l-1.314-0.476s-0.898-0.298-1.076-0.479c-0.182-0.179-1.313-0.599-1.313-0.599l-2.392 0.539-1.854 0.539-0.653 0.595-2.212-0.536-1.313-0.656-0.721-0.779h0.658l-0.234-0.955 0.115-0.656 0.595-0.361 0.421-1.731 0.719-0.299 0.177-0.894s0.599-0.541 0.78-0.72c0.179-0.177 0.776-1.017 0.776-1.017l1.43 0.599s1.494 0.181 1.256 0.242c-0.243 0.058-0.958 0.897-0.958 0.897s0.538 0.294 0.785 0.477c0.233 0.179 0.774 0.475 0.653 0.836-0.121 0.357 0.896 0.298 0.896 0.298l0.359-0.597 1.67-0.417 0.598-0.302-0.957-0.294s-0.836-0.302-0.715-0.482c0.121-0.181 0.896-1.375 0.896-1.375s1.973-0.595 2.15-0.595c0.175 0 1.378-0.239 1.378-0.239s-0.956 0.955-1.079 1.136c-0.124 0.181 0.062 0.774-0.238 1.016-0.296 0.238-0.72 0.48-0.896 0.541-0.183 0.055-0.063 0.655 0.117 0.716 0.184 0.061 0.779 0.298 0.779 0.298l2.63 1.372 1.612 1.612 1.259 1.021c-0.04-0.004 0.49 0.533 0.31 0.711zm15.18 7.884l-1.5 0.179s-1.312-0.538-1.368-0.775c-0.065-0.238-0.362-0.776-0.542-0.657-0.178 0.121-0.775 0.18-0.953 0.121-0.178-0.061-0.841-0.598-0.841-0.837 0-0.237-0.182-0.774 0.119-1.016 0.302-0.238 0.899-0.654 0.778-0.838-0.115-0.177-0.181-0.948-0.181-1.074 0-0.12 0-0.237 0.362-0.298 0.357-0.061 0.357-0.061 0.357-0.061s0.119-0.356-0.061-0.536c-0.178-0.18-1.257-0.957-1.376-1.135-0.112-0.178-1.434-1.432-1.612-1.617-0.177-0.175-0.955-0.712-0.955-0.712l-0.418-0.899 0.357-1.134-1.072-0.239-0.238-0.774v-0.181l1.131-1.312s0.78-0.417 0.957-0.303c0.179 0.124 0.595-0.357 0.664-0.536 0.053-0.183 1.187-0.959 1.43-1.078 0.237-0.118 0.654-0.656 0.896-0.357 0.236 0.297 1.729 0.778 1.729 0.778s0.542 0.118 0.477 0.354c-0.058 0.243-0.537 1.797-0.537 1.797s-1.072-0.299-1.191-0.239c-0.116 0.057-0.953 0.359-0.775 0.836 0.178 0.478-0.656 0.179-0.598 0.418 0.057 0.237 0.178 0.596 0.359 0.716 0.18 0.119 1.191 0.656 1.312 1.015 0.117 0.361 1.789 1.436 1.789 1.436s0.181 0.118 0.121 0.361c-0.056 0.238-0.179 1.492 0 1.492s0.595-0.061 0.595-0.061 0.543-1.133 0.723-1.013c0.178 0.118 0.896 0.655 1.075 1.073 0.175 0.418 0.537 0.834 0.357 0.954-0.183 0.118-1.017 0.06-1.255 0.06-0.235 0-0.658-0.299-0.777-0.18-0.123 0.12-0.357 0.418-0.18 0.775 0.18 0.362 0.541 0.898 0.722 1.021 0.176 0.117 0.353 0.054 0.895 0.538 0.537 0.478 0.715 0.714 0.537 1.253-0.18 0.537-0.061 1.016 0 1.193 0.059 0.179 0.178 0.597 0.3 0.776 0.116 0.18 0.116 0.417 0.116 0.417l-1.76 0.299zm-21.56-47.771c-0.021-0.008-0.044-0.008-0.052-0.008-0.02 0.008 0.01 0.008 0.05 0.008zm145.18 12.382c0.005-0.009-0.004-0.025-0.014-0.037 0 0.041 0 0.061 0.01 0.037zm-107.74-20.16s0.025-0.006 0.073-0.029c-0.041-0.037-0.069-0.065-0.073-0.083-0.04-0.163 0 0.112 0 0.112zm-16.93 133.44s-1.278 1.438-1.354 1.68c-0.084 0.235-1.115 1.51-1.28 1.907-0.16 0.398-1.43 1.273-1.43 1.273l-2.311 0.957s-0.795 0.08-0.558 0.403c0 0-0.16 0.633-0.714 1.352-0.56 0.715 0 1.67 0 1.67l0.315 1.593v1.516s-0.479 1.673-0.717 1.751c-0.236 0.082-0.635 0.559-0.873 1.357-0.242 0.795-0.16 1.353-0.16 1.353s0.16 1.195-0.082 1.436c-0.243 0.238 0.398 1.431 0.641 1.834 0.238 0.395 0.876 0.633 0.876 0.633s0.554 0.48 0.795 0.637c0.238 0.16 1.432-0.312 1.432-0.312s0.879-0.398 1.115-0.561c0.24-0.163 0.401-0.238 0.875-1.035 0.481-0.797 0.163-0.559 0.238-0.797 0.085-0.238 0.557-1.277 0.8-2.63 0.238-1.355 0.32-1.275 0.637-2.469 0.316-1.196 0.715-1.517 0.795-2.468 0.08-0.957 0.158-1.358 0.236-1.679 0.082-0.316 0.882-1.51 0.958-2.309 0.078-0.793 0.078-1.194-0.076-1.51-0.158-0.323 0.956-0.085 1.112-0.562 0.163-0.479 0 0 0.082-0.235 0.081-0.243 0.163-1.754 0.163-2.629 0-0.876-0.877-2.236-0.965-2.47-0.08-0.24-0.55 0.32-0.55 0.32zm79.58-11.55c0.243-0.637 0-0.717-0.157-1.035-0.158-0.318 0.315-1.75 0.955-2.31 0.637-0.559-0.318-0.641-0.318-0.641l-0.956 0.16-0.877-1.673s-1.514-1.191-1.99-1.512c-0.479-0.316 0.712-0.957 0.712-0.957s-2.702-2.549-3.022-2.549c-0.318 0-1.915-1.273-2.153-1.356-0.238-0.077-1.512-2.23-1.512-2.23l-5.42-2.707s-0.715 0.64-0.715 0.955c0 0.319 0.957 0.478 0.957 0.478s0.316 0.238 0.635 0.399c0.318 0.16 1.273 0.955 1.354 1.516 0.077 0.555 0.24 0.875 0.797 1.35 0.561 0.479 1.512 0.722 1.512 0.722s0.403 1.352 0.722 1.512c0.316 0.16 0.557 0.874 0.712 1.275 0.161 0.398 1.677 2.867 1.591 3.743-0.076 0.877 1.122 2.95 1.122 2.95s2.709 2.148 2.789 2.469c0.078 0.316 2.063 0.876 2.063 0.876s0.98-0.82 1.22-1.45zm18.48-16.33c0-0.318-0.877-1.033-1.118-1.354-0.238-0.321-1.67-1.595-1.988-1.833-0.316-0.238 0 0-0.477 0.88-0.477 0.875-1.037 1.91-1.278 1.988-0.24 0.08-1.988 1.194-2.469 1.751-0.477 0.557-1.43 1.993-1.748 1.76-0.318-0.243-1.679 1.028-1.679 1.028l-0.715 1.753-2.232-0.475 0.158 0.719s-0.713 1.11-0.553 1.354c0.16 0.239 0 1.117 0.238 1.59 0.236 0.482 0.477 0.799 0.875 1.117s0.477 1.354 0.238 2.151 0.321 0.955 0.637 1.278c0.318 0.316 1.034 0.398 1.354 0.155 0.318-0.24 0.957-0.315 1.36-0.077 0.39 0.238 1.432 0.238 1.748 0.637 0.318 0.398 1.594 0.158 1.83 0.398 0.243 0.238 1.517-0.24 1.833-0.563 0.315-0.312 0-0.948 0-1.988 0-1.035 0.16-0.955 0.721-1.354 0.557-0.398 0.955-0.717 1.033-1.271 0.083-0.561 0.241-1.516 0.241-1.995s1.275-0.397 1.511-0.558c0.246-0.16-0.16-0.477-0.16-0.715 0-0.242-1.035-1.355-1.271-1.754-0.238-0.401 0.396-2.392 0.792-2.71 0.42-0.33 1.13-1.6 1.13-1.92zm-11.15 21.43c0.237 0.08 0.794 0.08 1.985 0.398 1.202 0.318 2.317 0.4 2.474 0.717 0.16 0.316 1.191 0 1.675-0.078 0.477-0.082 1.596-1.118 2.311-0.32 0.718 0.797 2.149 0.238 2.389 0.398 0.238 0.155 0.961-0.398 1.832-0.316 0.878 0.076 0.958 0.316 1.196 0.316s1.035 0.24 1.434 0.155c0.399-0.077 0.875-0.554 1.593-0.472 0.721 0.076 2.627-0.562 2.627-0.562s0 0.081-0.472 0.399c-0.481 0.318-2.075 1.511-2.075 1.511s-0.24-0.157-0.321 0.323c-0.077 0.477-0.554 1.435-0.077 1.032 0.48-0.393 2.153-1.829 2.552-2.147 0.394-0.318 0.554-0.48 0.953-0.719 0.398-0.238 1.273-0.479 1.273-0.479l0.561-0.398s-0.48-0.316-0.721-0.238c-0.234 0.083-0.637-0.316-1.191-0.078-0.56 0.238-2.071 0.477-2.071 0.477s-0.957 0.161-1.514-0.077-1.198-0.638-1.435-0.321c-0.238 0.321-1.592 0.717-1.835 0.717-0.235 0-1.113-0.08-1.75-0.237-0.638-0.158-0.798-0.158-1.116-0.158s-0.318-0.238-1.194-0.321c-0.879-0.078-1.122-0.316-1.352-0.238-0.247 0.083-0.637 0.16-0.955 0.321-0.322 0.155-1.282 0.155-1.514-0.083-0.243-0.238-2.635-0.715-2.635-0.715s-0.316-0.398 0.403-0.637c0.715-0.238 0.559-0.238 0.475-0.555-0.078-0.324-1.276-0.324-1.59-0.238-0.318 0.074-1.12 0.238-1.438-0.086-0.316-0.312-1.273-1.118-1.589-0.638-0.321 0.479-0.16 1.118-0.481 1.04-0.316-0.078-2.472 0.158-2.472-0.078 0-0.238-0.557-0.879-0.797-0.962-0.238-0.077-0.158-0.315-0.555-0.48-0.4-0.151-1.195 0.082-1.195 0.082l-0.795 0.083-0.958 1.113s2.231 0.242 2.47 0.559c0.238 0.32 1.434 1.273 1.434 1.273s1.59 0.398 1.991 0.477c0.42 0.12 2.25 0.19 2.49 0.28zm-2.62-44.695c-0.247-0.158-0.879-0.158-0.879-0.158l-0.798 0.317-0.398-0.159-0.879 1.197s0.24 1.352 0.479 1.352 1.115 0 1.115 0l0.88-0.636 0.48-1.193s0.23-0.56 0-0.72zm12.9-3.186l0.479-0.958s0.24-0.956 0.317-1.194c0.081-0.243 0.396-0.958 0.163-1.356-0.24-0.398-0.082-0.954-0.24-1.273-0.161-0.316-0.24-0.796-0.24-0.796l-0.797 0.317c-0.318 0.318-0.795 1.752-0.795 1.752s-0.319 1.439-0.081 1.75c0.238 0.325 0.876 1.198 0.876 1.198l0.32 0.56zm10.03 23.981c0.717 0.241 0.957 0.085 0.875-0.242-0.078-0.318-0.318-1.988-0.477-2.623-0.16-0.637 0.955-1.118-0.238-2.071-1.193-0.96-1.113-0.875-1.193-0.96-0.081-0.08-0.081-0.875-0.081-0.875s0.238-0.795 0.081-1.033c-0.158-0.238-0.319-0.717-0.479-0.955-0.16-0.24-0.16-0.318-0.639-0.318-0.477 0-0.477-0.559-0.795-0.482-0.316 0.08-1.115 0.716-0.559-0.234 0.559-0.962 0.242-1.12 0.242-1.28 0-0.158-0.403-0.396-0.799-0.475-0.396-0.082-0.718-0.559-1.274-0.4-0.557 0.164-0.795-0.236-1.115-0.236-0.318 0-0.477-0.401-0.555-0.875-0.082-0.479 0.078-1.436 0.078-1.673 0-0.242 0.477-0.958 0.477-0.958s0.16-0.322 0-0.877c-0.158-0.556-0.477-1.513-0.477-1.91 0-0.398-0.88-0.797-0.88-0.797l-1.037 0.398-0.396 3.506s-0.716 0.236-0.634 0.554c0.075 0.321 0.075 1.835 0.476 2.153 0.396 0.315 1.037 0.715 1.037 0.715 0.156 0.4-0.236 1.193-0.236 1.193s0.951 1.12 1.036 1.44c0.076 0.316 0.557 0.155 0.557 0.155s-0.238-2.15 0.236-1.754c0.479 0.4 1.752 0.325 1.83 0.799 0.083 0.479 0.958 0.955 1.113 1.436 0.16 0.478 1.198 0.638 1.122 1.032-0.082 0.4-0.721 0.4-1.122 0.479-0.394 0.08-1.67-0.873-1.67-0.873s-0.318-0.08-0.396 0.395c-0.078 0.479 0.158 1.672 0.477 2.07 0.316 0.401 0.637 0 0.798 0.238 0.16 0.243 0 0.8 0.24 1.12 0.235 0.318 0.873 0.396 1.115 0.236 0.238-0.156 1.035-0.557 1.035-0.557s-0.084-0.955-0.4-1.118c-0.318-0.158-0.797-0.637-0.555-0.872 0.236-0.241 0.713-0.718 0.955-0.64 0.234 0.08 0.798 1.116 0.715 1.354-0.077 0.238 0 0.321 0.321 1.194 0.315 0.882 0.477 0.721 0.077 0.882-0.398 0.155-0.795 0.637-1.037 0.795-0.053 0.037-0.061 0.06-0.053 0.075-0.058-0.019-0.211-0.047-0.582-0.075-1.04-0.08-0.799-0.557-1.04-0.08-0.235 0.477-0.477 0.875-0.477 0.875l-0.554 0.238s-0.401 1.273-0.321 1.67l0.078 0.405s0.797-1.517 1.038-1.517c0.235 0 0.235 0.398 0.557 0.158 0.322-0.238 0.641-0.076 0.641-0.076s0.477-0.242 0.395 0.393c-0.073 0.637-0.073 0.717 0.158 1.362 0.245 0.633 0.882 0.953 1.12 1.191s0.554 0.398 0.715 0.557c0.16 0.158 0.238-0.717 0.16-1.354-0.12-0.66-0.44-1.15 0.27-0.9zm-5.57 9.64c0.882 0.479 1.432 0.72 2.149 0.958 0.721 0.238 1.432-0.479 1.594-0.317 0.158 0.157 0.878-0.56 0.878-0.56s0.554-0.797 0.477-1.033c-0.08-0.244-0.161-0.959-0.321-0.719-0.155 0.236-1.672 1.115-1.988 1.192-0.316 0.08-1.115-0.237-1.832-0.237-0.718 0-2.47-0.559-2.713-0.32-0.231 0.242-0.953 1.194-0.875 1.596 0.082 0.398 0 0.637 0 0.879 0 0.238-0.238 1.352-0.238 1.035l-1.114 2.942s0.874 2.235 0.798 2.634c-0.084 0.396-0.242 2.63 0 2.387 0.242-0.242 1.43-0.398 1.43-0.398s0.403-1.434 0.325-2.07c-0.082-0.637-0.802-2.63-0.165-2.47 0.642 0.16 1.278 0.955 1.278 0.955s-0.48 0.483-0.32 0.8 0.717 0.715 0.639 1.432c-0.08 0.717 0.238 1.037 0.238 0.795 0-0.238 0.798 0.16 0.878 0.32 0.068 0.143 0.822-0.524 0.939-0.518 0.009-0.238 0.128-1.215-0.066-1.473-0.241-0.318-0.241-0.795-0.793-1.432-0.562-0.644 0.158-0.798-0.401-1.521-0.557-0.712-0.795-0.474-0.557-0.712 0.236-0.241 0.718-0.399 1.116-0.638 0.394-0.24 0.715-0.875 0.715-0.875 0.08-0.238 0.242-0.158-0.396-0.318-0.637-0.16-1.198-0.322-1.595 0.16-0.396 0.475-0.795 0.555-0.795 0.555s0 0-0.318 0.08-0.24-0.477-0.479-0.557c-0.243-0.078-0.243-0.158-0.398-0.715-0.161-0.559 0-1.436 0.242-1.599 0.23-0.15 0.78-0.71 1.66-0.23zm2.07 9.32c0.009-0.027 0-0.037-0.014-0.039-0.01 0.05 0 0.08 0.01 0.04zm31.23 0c-0.076-0.479-0.16-1.035-0.392-1.432-0.245-0.398-5.425-3.111-6.062-3.349s-3.975-1.274-3.975-1.274-1.599 0.637-1.599 0.878c0 0.238-0.798 1.115-1.118 1.436-0.315 0.316-0.237 0.635-0.714 0.557-0.48-0.08-0.555 0-0.802-0.24-0.231-0.238-0.474-1.04-0.792-1.275-0.321-0.238-0.956-0.557-0.802-1.194 0.164-0.637 0.398-1.512-0.078-1.512s-1.191 0.321-1.352 0.076c-0.16-0.234-1.113-0.154-1.113-0.154l-1.989 0.557-0.247 0.08s0.88 1.671 1.441 1.51c0.557-0.157 1.59 1.116 1.59 1.116s-0.316 0.719-0.158 0.957 0.797 1.435 0.797 1.435l1.273-0.08 1.274 0.557 3.428 1.115 0.96 1.111 0.557 2.396s-1.438 0.953-1.356 1.352c0.078 0.399 1.833-0.077 1.833-0.077l1.432 0.715 1.748 0.875 1.997 0.077 1.191-1.352s1.75-1.512 1.75-1.193 1.597 0.955 1.837 1.673c0.243 0.717 1.674 1.995 1.674 1.995s1.988 0.637 2.229 0.717c0.236 0.074 0.798 0.158 1.358 0.316 0.557 0.159-0.561-1.437-0.561-1.437s-1.755-1.035-1.833-1.434c-0.078-0.399-1.512-1.59-1.432-1.989 0.078-0.398-0.642-0.875-0.319-0.875 0.319 0 1.591-0.158 1.433-0.402-0.158-0.234-1.035-1.751-1.433-1.751-0.41-0.07-1.61-0.07-1.69-0.54zm2.71 26.92s-0.875-0.395-0.955-0.236c-0.079 0.16-0.401-1.514-0.401-1.514l0.16-0.875s-2.393-3.031-2.466-2.788c-0.087 0.238-0.88-2.47-0.88-2.47l-0.237-2.947-0.558-1.754-1.432 0.16-0.32-2.87-0.802-2.708-0.394-0.158-0.798 1.83s-0.398 2.552-0.559 3.428c-0.16 0.875-0.238 2.152-0.715 2.949-0.479 0.797-1.595 2.705-1.595 2.705s-1.275 0-1.436-0.238c-0.158-0.238-1.59-0.957-1.59-0.957l-0.88-1.353-1.429-1.113s-0.964-1.198-1.04-1.118c-0.077 0.079 0.722-1.113 0.953-1.274 0.247-0.158 0.321-0.953 0.321-0.953l1.275-1.039s0.239-0.399 0-0.635c-0.24-0.241-0.24-0.64-0.557-0.722-0.32-0.078-2.153 0.802-2.153 0.802l-1.512-0.72s-1.118-0.559-1.352-0.957c-0.24-0.396-0.88-0.635-1.038-0.477-0.16 0.16 0 0.955 0 0.955s0.327 0.702 0.442 0.921c-0.146-0.124-0.681 0.277-0.681 0.277l-1.514 0.155-0.958 0.876-0.717 1.357-0.476 0.956s0.396 0.637 0.238 0.556c-0.16-0.079-2.312 0.559-2.312 0.559s-0.561-1.194-0.799-1.433c-0.238-0.241-0.953-0.638-1.273-0.638-0.316 0-1.114 0.718-1.114 0.718l-0.315 1.671-1.198-0.318-1.038 1.752-1.026 0.401-0.565 1.193-0.316-1.271-1.195 1.113-0.401 1.828s-1.514 1.437-1.674 1.755c-0.158 0.316-3.509 1.517-3.509 1.517l-2.145 0.715s-1.115 0.238-1.355 0.238c-0.238 0-2.313 1.516-2.313 1.516l-0.711 0.715-0.24-0.637-0.877 0.955v1.993l-0.877 1.192 0.479 1.831-0.717 0.242-0.637 0.481 0.718 1.434 0.238 2.623s0.397 0.8 0.319 1.28c-0.079 0.473-0.4 0.953-0.4 1.271s0.24 1.512 0.24 1.83c0 0.32-0.72 2.396-0.72 2.396l-0.872 1.432-0.715 0.08s0.154 1.515 0.395 1.515c0.238 0 0.958 0.315 1.592 0.559 0.64 0.233 1.674-0.16 1.914-0.243 0.238-0.08 1.993-1.035 1.993-1.035s1.035-0.715 1.352-0.637c0.318 0.08 1.757-0.158 1.991 0 0.24 0.16 2.072 0.08 2.072 0.08l1.113-1.193 3.03-1.356 1.516-0.16 3.659-1.034 3.108 0.317s2.632 1.915 2.632 1.755c0-0.158 0.557 1.037 0.557 1.037l-0.158 1.51s0.874 0.717 0.952 0.479c0.082-0.24 0.96-1.195 1.2-1.434 0.233-0.238 0.957-0.555 1.515-0.953 0.554-0.4 0.712-0.639 0.712-0.639s-0.555 1.592-0.797 1.592c-0.238 0-0.72 0.477-0.958 0.797-0.238 0.316-0.632 0.56-0.632 0.72 0 0.155 0.477 0.155 0.71 0 0.243-0.16 0.642-0.642 0.965-0.802 0.315-0.158 0.479-0.078 0.394 0.32-0.078 0.398-0.078 0.793-0.394 0.953-0.323 0.16-0.722 0.398-1.281 0.72-0.552 0.32-0.952 0.077-1.193 0.32-0.24 0.24 0.158 0.481 0.318 0.637 0.16 0.16 0.562 0.64 0.875 0.082 0.316-0.559 0.724-0.962 0.958-1.117 0.238-0.156 0.717-0.642 0.717-0.243s0.243 0.802 0.318 1.123c0.083 0.315-0.555 0.952-0.479 1.11 0.082 0.16 0.882 1.913 0.882 1.913s0.477 0.633 1.031 0.633c0.559 0 1.75 0.402 1.992 0.485 0.234 0.075 1.356 0 1.517-0.321 0.16-0.32 1.113-0.957 1.035-0.719-0.082 0.24 0.078 0.719 0.316 0.957s0.637 0.88 0.637 0.88l2.949-2.315s2.229-0.479 2.308-0.238c0.082 0.238 1.512-1.59 1.512-1.59l4.54-5.576 1.76-1.198 1.272-1.833 1.75-3.191 0.957-3.576 0.718-2.71-1.753-2.633-0.71-2.24zm-17.69 29.72s-1.113-0.717-1.277-0.955v-0.24l-0.793 2.467-0.715 2.633s1.43 0.16 1.59 0.238c0.16 0.077 2.552-1.353 2.634-1.673 0.078-0.32 1.672-2.948 1.672-2.948s-2.55 0.55-3.11 0.47zm43.18-4.62l-0.798-0.802s0.083-1.113-0.16-1.113c-0.235 0-0.637 0.08-0.637 0.08l0.401-2.792-1.441-0.873-0.314 4.302-1.038 2.395-2.066 0.797s0.875 0.873 1.193 0.873c0.316 0-0.24 0.956-0.24 0.956l-1.354 1.196s-0.475-0.241-0.475-0.878c0-0.639-1.278 0.637-1.278 0.637l-0.875-0.559-2.392 2.068-3.265 1.677-7.646 4.703 1.033 0.557s0.956 0.398 1.036 0.559c0.077 0.156 2.389-1.037 2.389-1.037l2.631-1.915 1.27-1.113s2.315-0.637 2.233-0.318c-0.076 0.318 0.717-1.513 0.717-1.513l2.231-1.195 1.356-1.352 1.113 0.313 1.594-0.557 2.709-1.751 0.477-1.437 0.88 0.085 1.668-1.198 1.115-1.912-2.04 1.1zm-321.05-174.71c0.637 0.234 1.034 0.317 2.391 0.397 1.355 0.076 1.515-0.08 2.151 0.157 0.632 0.236 1.192 0.643 1.433 0.077 0.238-0.554 0.557-0.554 0.795-0.874 0.238-0.318 0-0.637 0.397-0.796 0.398-0.158 1.117 0.639 1.117 0.639s-0.878 0.558-0.48 0.634c0.397 0.083 1.513 0.32 2.074 0.397 0.558 0.083 0.08 0.239 1.036 0.327 0.954 0.075 1.353-0.088 2.546-0.088 1.196 0 1.917-0.553 2.314-0.397 0.397 0.158 1.75 0.158 2.147 0.081 0.398-0.081 1.359-0.954 0.958-0.954s-1.913-0.401-2.549-0.479c-0.636-0.079-2.633-0.159-3.105 0.079-0.482 0.24-1.039 0.401-1.357 0.24-0.318-0.159 1.357-1.432 2.47-1.274 1.117 0.159 2.788-0.158 3.345-0.079s1.916 0.318 1.916 0.318 0.315-0.159 0.394-0.397c0.081-0.239 0.161-0.478 0.161-0.478l0.798 0.716s5.255-2.149 5.497-2.55c0.239-0.402 3.58-1.435 4.065-1.352 0.477 0.076 3.74-1.356 4.302-1.118 0.55 0.239 3.501-0.713 3.501-0.713s2.154-0.48 2.632-0.48c0.479 0 0.716-0.556 0-0.477-0.719 0.079-6.696 0.079-8.126 0-1.438-0.079-4.941-0.003-5.498 0.079-0.558 0.08-3.748 0.956-5.1 0.878-1.356-0.081-5.735 0.554-5.973 0.475-0.242-0.08-1.99-0.159-1.83-0.159 0.155 0-2.315 1.992-2.713 1.432-0.397-0.557 0-0.955-0.397-0.557-0.41 0.398-0.33 2.232-0.33 2.232 0.477 0.32 1.513 1.434 2.232 0.957 0.713-0.479 1.113-0.239 1.352-0.162 0.236 0.081-1.113 1.117-1.913 1.117-0.796 0-3.347 0.956-3.347 0.956s-1.116-1.036-1.355-1.115c-0.238-0.08-1.59-0.159-1.829-0.159-0.238 0-0.558-0.238-0.637 0.478s0.079 1.83-0.716 1.671c-0.798-0.16-1.035 0.158-1.435-0.078-0.398-0.24 0.56-1.435-0.561-1.514-1.115-0.079-1.751-0.875-2.388 0.397-0.63 1.273-1.02 1.273-0.38 1.516zm-28.841 4.935c-0.242 0.402 2.067 0.56 2.225 0.243 0.167-0.322 1.598-0.083 1.915-0.558 0.318-0.479 1.909-1.436 2.148-1.277 0.239 0.161-0.477 0.956-0.716 1.037-0.239 0.079 0.801 0.157-0.239 0.958-1.033 0.795-0.794 1.514-0.794 1.514s-0.876 0.397-0.239 0.557 1.831 0.716 1.831 0.716 0.079 0.557 0.079 0.717c0 0.159 0.401 0.637 1.273 0.08 0.882-0.558 2.632-1.193 2.871-0.955 0.238 0.238 0.798-0.08 1.597-0.16 0.793-0.078 1.433-0.318 1.433-0.318l1.034 0.16c0.479 0.238 0.879-0.318 1.679 0.158 0.792 0.478 1.905 0.478 1.905 0.478s1.118-0.875 1.355-0.954c0.24-0.08 0.717-0.159 0.478-0.717-0.238-0.559-1.114-1.434-0.875-1.598 0.238-0.158 0.795-0.318 0.716-1.83s0.159-1.271-0.239-1.193c-0.397 0.08-1.355 0.558-1.355 0.558l-0.316-0.08c-0.158 0.477-0.877 0.796-1.041 1.274-0.158 0.477-0.628 0.716-0.628 0.318s-0.56-0.479-0.645-0.797c-0.074-0.319-0.795-0.238-1.192-0.159-0.399 0.079-1.516-0.717-1.915-0.398-0.394 0.319-0.797-0.158-1.115-0.875-0.315-0.716-0.716-1.277-1.194-1.2-0.478 0.083-3.425 0-3.425 0l-1.753 0.159s-0.954 0.243-0.954 0.723c0 0.478-0.16 0.797-0.637 0.955-0.481 0.159-3.985 1.433-3.985 1.433s0.957 0.632 0.718 1.031zm25.014-1.909l-0.876-0.16s-0.079-0.637-0.317-0.637c-0.247 0-0.958 0.876-0.958 0.876s1.038 0.398 1.197 0.717 0.556 0.715 0.556 0.957c0 0.235 2.628-0.798 2.628-0.798l1.438-0.717s0.074 0.159 0.159-0.238c0.08-0.398-0.159-0.716 0-0.797 0.157-0.079 0.795-1.113 0.157-0.954-0.638 0.156-1.994 0-2.63 0.238-0.637 0.239-1.431-0.316-1.352 0.318 0.074 0.637-0.005 1.195-0.005 1.195zm-12.748-3.666s0.318 1.355 0.958 0.958c0.636-0.402 2.466 0.958 2.466 1.113 0 0.164 0.636 0.083 0.636 0.083l2.792-0.959 1.558-0.237s1.47-0.083 1.707 0.08c0.236 0.157 1.437-0.397 1.437-0.397l0.476-0.801-1.037-0.318 0.242-0.796s-0.321-0.478-1.035 0.079c-0.722 0.558-2.711 1.671-2.553 1.435 0.16-0.24-0.794 0.078-1.193-0.401-0.401-0.476-0.956-0.557-0.956-0.557s-1.12-0.397-1.514-0.238c-0.4 0.159 0.716-0.796 0.716-0.796s0.239-0.877-0.243-0.796c-0.473 0.081-4.379 0.956-4.379 0.956s-1.673 0.955-1.99 0.715c-0.318-0.238-1.512 0.159-1.512 0.159l0.796 0.478c0.238-0.239 2.628 0.24 2.628 0.24zm17.765-3.265c0.238 0.077 2.152 0.635 2.391 0.716 0.238 0.081 0.958 0.239 1.271 0.16 0.318-0.079 1.594-0.715 1.119-0.955-0.479-0.238-1.993-0.563-2.312-0.724-0.318-0.158-1.515-0.233-1.515-0.233l-0.717 0.155c-0.16 0.239-0.48 0.803-0.24 0.881zm-7.648 1.354c0.324-0.158 1.437-0.637 1.437-0.637l0.951-0.795 0.322-0.403s-0.716-0.633-1.035-0.399c-0.318 0.239-1.996 0.958-1.996 0.958l-0.079 0.558-1.307 0.56s1.386 0.317 1.707 0.158zm14.348-0.238c0.314 0.08 1.271 0.08 1.351-0.16 0.079-0.239-0.079-1.916-0.079-1.916s-0.322-0.474-0.718-0.395c-0.398 0.079-1.671 0.713-1.671 0.713-0.08 0.242 0.79 1.678 1.12 1.758zm-20.126 84.9c-0.055-0.177-0.954-0.47-1.431-0.47-0.478 0-2.212-1.678-2.328-2.037-0.124-0.359-4.004-1.312-4.004-1.312s-4.243-0.24-4.243-0.357c0-0.125-2.033 1.612-2.033 1.612v0.178s0.175 0.835 0.243 1.015c0.056 0.178 1.372-0.958 1.491-1.434s1.074-0.599 1.312-0.719c0.243-0.116 0.358 0.483 0.598 0.483 0.242 0 1.317 0.356 1.317 0.356l2.151 0.717 0.836 0.775s0.357 1.908 0.357 2.151c0 0.241 1.614 0.116 1.614 0.116l3.166-0.292c-0.001-0.001 1.018-0.602 0.954-0.782zm-0.115 4.005c0.295 0.119 0.772-0.059 1.014-0.059s1.018-0.179 1.018-0.179 0.238 0.538 0.238 0.718c0 0.176 1.253-0.062 1.253-0.242s0.299-0.656 0.299-0.656l1.491-0.298s2.035 0.06 2.213 0.06c0.18 0 0.3-0.358-0.062-1.015-0.355-0.659-1.375-0.782-1.614-1.261-0.239-0.474-1.372-0.171-1.672 0-0.298 0.181-1.968-0.412-2.449-0.412-0.474 0 0 0.537 0 0.537l-0.18 1.732h-1.97l-0.061 0.178s-0.539 0.18-0.539 0.539c0.002 0.358 0.719 0.239 1.021 0.358z"
      fill="#aaaeb7"
  /></svg>
